# xmcd
#
# Track frame offsets: 
#        150
#        17370
#        35982
#        54745
#        71875
#        91702
#        109995
#        129852
#        149945
#        171307
#
# Disc length: 2602 seconds
#
# Revision: 7
# Processed by: cddbd v1.5.2PL0 Copyright (c) Steve Scherf et al.
# Submitted via: ExactAudioCopyFreeDBPlugin 1.0
#
DISCID=940a280a
DTITLE=Various Artist - Steppin Country
DYEAR=1993
DGENRE=Country
TTITLE0=Collin Raye - I Want You Bad and That Ain't Good
TTITLE1=Dolly Parton - Romeo
TTITLE2=Ricky Van Shelton - Heartache Big As Texas
TTITLE3=Joe Diffie - Honky Tonk Attitude
TTITLE4=Mary Chapin Carpenter - Down At The Twist and Shout
TTITLE5=Ricky Van Shelton - Wild Man
TTITLE6=Gibson Miller Band  The - Texas Tattoo
TTITLE7=Mary Chapin Carpenter - I Feel Lucky
TTITLE8=Larry Boone - Get In Line
TTITLE9=Stacy Dean Campbell - Rosalee
EXTD=
EXTT0=
EXTT1=
EXTT2=
EXTT3=
EXTT4=
EXTT5=
EXTT6=
EXTT7=
EXTT8=
EXTT9=
PLAYORDER=
